<?xml version="1.0" encoding="utf-8"?>
<!-- Generator: Adobe Illustrator 16.0.0, SVG Export Plug-In . SVG Version: 6.00 Build 0)  -->
<!DOCTYPE svg PUBLIC "-//W3C//DTD SVG 1.1//EN" "http://www.w3.org/Graphics/SVG/1.1/DTD/svg11.dtd">
<svg version="1.1" id="Layer_1" xmlns="http://www.w3.org/2000/svg" xmlns:xlink="http://www.w3.org/1999/xlink" x="0px" y="0px"
	 width="220px" height="38px" viewBox="0 0 220 38" enable-background="new 0 0 220 38" xml:space="preserve">
<g>
	<g>
		<g>
			<g>
				<g>
					<polygon id="SVGID_1_" fill="#F6921E" points="20.628,16.179 27.033,10.499 6.981,10.499 0.535,16.146 0.535,35.631 
						7.106,29.35 7.106,16.116 					"/>
				</g>
				<g>
					<g>
						<defs>
							<polygon id="SVGID_2_" points="20.628,16.179 27.033,10.499 6.981,10.499 0.535,16.146 0.535,35.631 7.106,29.35 
								7.106,16.116 							"/>
						</defs>
						<clipPath id="SVGID_4_">
							<use xlink:href="#SVGID_2_"  overflow="visible"/>
						</clipPath>
						<polygon clip-path="url(#SVGID_4_)" fill="#F6921E" points="7.145,35.631 0.438,35.631 0.438,16.183 7.145,16.113 						"/>
					</g>
				</g>
			</g>
		</g>
		<g>
			<g>
				<g>
					<polygon id="SVGID_3_" fill="#808284" points="8.473,30.653 2.512,36.331 22.565,36.331 29.01,30.685 29.01,10.987 
						22.439,17.11 22.439,30.715 					"/>
				</g>
				<g>
					<g>
						<defs>
							<polygon id="SVGID_5_" points="8.473,30.653 2.512,36.331 22.565,36.331 29.01,30.685 29.01,10.987 22.439,17.11 
								22.439,30.715 							"/>
						</defs>
						<clipPath id="SVGID_6_">
							<use xlink:href="#SVGID_5_"  overflow="visible"/>
						</clipPath>
						<polygon clip-path="url(#SVGID_6_)" fill="#808284" points="2.512,36.329 2.512,30.517 22.378,30.517 22.449,36.329 						"/>
					</g>
				</g>
			</g>
		</g>
	</g>
	<g>
		<path fill="#F6921E" d="M54.184,20.65c0,2.619-0.595,4.706-1.78,6.263c-1.184,1.557-2.817,2.334-4.896,2.334
			c-1.217,0-2.288-0.233-3.208-0.696c-0.922-0.458-1.671-1.118-2.255-1.968v9.048h-1.938V11.425h1.486l0.355,2.731
			c0.583-0.972,1.335-1.721,2.263-2.254c0.925-0.534,2.015-0.801,3.265-0.801c2.099,0,3.744,0.837,4.926,2.514
			c1.186,1.675,1.779,3.907,1.779,6.697L54.184,20.65L54.184,20.65z M52.243,20.312c0-2.218-0.442-4.03-1.325-5.429
			c-0.884-1.401-2.174-2.1-3.878-2.1c-1.284,0-2.33,0.306-3.144,0.919s-1.43,1.413-1.851,2.392v8.467
			c0.453,0.948,1.094,1.696,1.923,2.239c0.831,0.546,1.864,0.814,3.103,0.814c1.693,0,2.976-0.635,3.854-1.904
			c0.879-1.271,1.317-2.958,1.317-5.06V20.312z"/>
		<path fill="#F6921E" d="M66.18,13.088l-1.373-0.096c-1.216,0-2.216,0.345-2.996,1.024c-0.784,0.688-1.34,1.628-1.673,2.822v12.07
			h-1.94V11.425h1.695l0.245,2.909v0.194c0.505-1.077,1.182-1.917,2.035-2.522c0.85-0.602,1.863-0.905,3.04-0.905
			c0.234,0,0.461,0.019,0.677,0.058c0.215,0.037,0.394,0.079,0.532,0.122L66.18,13.088z"/>
		<path fill="#F6921E" d="M71.327,9.094h-1.923V6.377h1.923V9.094z M71.327,28.908h-1.923V11.425h1.923V28.908z"/>
		<path fill="#F6921E" d="M77.992,11.425l0.179,2.875c0.561-1.012,1.305-1.799,2.237-2.359c0.931-0.56,2.042-0.84,3.321-0.84
			c1.336,0,2.452,0.321,3.347,0.962c0.892,0.641,1.533,1.618,1.92,2.933c0.527-1.219,1.282-2.171,2.256-2.861
			c0.974-0.689,2.15-1.035,3.529-1.035c1.863,0,3.306,0.621,4.325,1.86c1.016,1.236,1.527,3.157,1.527,5.751v10.926h-1.942V18.679
			c0-2.152-0.381-3.674-1.146-4.563c-0.765-0.889-1.82-1.333-3.166-1.333c-1.476,0-2.619,0.451-3.426,1.349
			c-0.807,0.901-1.321,2.06-1.536,3.481c0,0.12,0.003,0.238,0.009,0.356c0.003,0.118,0.006,0.268,0.006,0.453v10.486h-1.953V18.679
			c0-2.11-0.385-3.619-1.155-4.533c-0.771-0.91-1.83-1.364-3.175-1.364c-1.358,0-2.438,0.341-3.241,1.025
			c-0.801,0.684-1.364,1.609-1.688,2.773v12.328h-1.938V11.425H77.992L77.992,11.425z"/>
		<path fill="#F6921E" d="M116.413,28.908c-0.121-0.614-0.209-1.142-0.271-1.585c-0.056-0.438-0.087-0.892-0.087-1.354
			c-0.603,0.947-1.448,1.73-2.537,2.35c-1.089,0.62-2.338,0.929-3.747,0.929c-1.715,0-3.042-0.452-3.986-1.363
			c-0.94-0.91-1.412-2.147-1.412-3.707c0-1.563,0.683-2.831,2.05-3.802c1.37-0.969,3.149-1.45,5.335-1.45h4.297v-2.168
			c0-1.25-0.396-2.229-1.188-2.94c-0.788-0.71-1.908-1.067-3.351-1.067c-1.323,0-2.394,0.323-3.208,0.971
			c-0.814,0.644-1.219,1.46-1.219,2.438h-1.792l-0.034-0.094c-0.066-1.316,0.5-2.471,1.688-3.469
			c1.191-0.994,2.746-1.494,4.663-1.494c1.917,0,3.459,0.49,4.621,1.471c1.164,0.982,1.744,2.389,1.744,4.218v8.596
			c0,0.613,0.038,1.213,0.107,1.794c0.067,0.583,0.183,1.157,0.348,1.729H116.413L116.413,28.908z M109.981,27.536
			c1.488,0,2.775-0.354,3.862-1.059c1.088-0.708,1.827-1.614,2.213-2.725v-3.346h-4.314c-1.573,0-2.871,0.375-3.893,1.126
			c-1.021,0.747-1.536,1.647-1.536,2.705c0,0.99,0.327,1.788,0.98,2.39C107.939,27.234,108.84,27.536,109.981,27.536z"/>
		<path fill="#F6921E" d="M124.971,28.908h-1.925V3.7h1.925V28.908z"/>
		<path fill="#58595B" d="M144.101,27.614c1.239,0,2.334-0.365,3.29-1.097c0.953-0.733,1.428-1.752,1.428-3.056h1.73l0.034,0.101
			c0.041,1.614-0.595,2.967-1.907,4.055c-1.315,1.089-2.839,1.634-4.575,1.634c-2.326,0-4.14-0.823-5.437-2.46
			c-1.298-1.635-1.947-3.731-1.947-6.287v-0.676c0-2.542,0.646-4.631,1.939-6.268c1.293-1.639,3.104-2.459,5.431-2.459
			c1.873,0,3.435,0.569,4.687,1.696c1.249,1.131,1.851,2.619,1.81,4.462l-0.034,0.096h-1.73c0-1.4-0.457-2.516-1.372-3.354
			c-0.916-0.834-2.034-1.252-3.363-1.252c-1.83,0-3.194,0.675-4.086,2.021c-0.895,1.349-1.341,3.032-1.341,5.058v0.676
			c0,2.062,0.446,3.76,1.341,5.1C140.893,26.946,142.259,27.614,144.101,27.614z"/>
		<path fill="#58595B" d="M153.322,19.91c0-2.577,0.707-4.687,2.115-6.338c1.412-1.648,3.284-2.471,5.608-2.471
			c2.338,0,4.211,0.823,5.623,2.471c1.411,1.651,2.118,3.761,2.118,6.338v0.531c0,2.585-0.703,4.699-2.108,6.341
			c-1.406,1.643-3.271,2.465-5.6,2.465c-2.35,0-4.229-0.822-5.642-2.465c-1.408-1.642-2.115-3.756-2.115-6.341V19.91z
			 M155.261,20.441c0,2.027,0.509,3.729,1.533,5.104c1.025,1.383,2.45,2.071,4.285,2.071c1.796,0,3.21-0.688,4.241-2.071
			c1.029-1.375,1.542-3.077,1.542-5.104V19.91c0-1.996-0.519-3.686-1.552-5.074c-1.033-1.392-2.455-2.087-4.265-2.087
			c-1.811,0-3.227,0.695-4.252,2.087c-1.024,1.388-1.533,3.078-1.533,5.074V20.441L155.261,20.441z"/>
		<path fill="#58595B" d="M171.736,20.312c0-2.79,0.589-5.022,1.771-6.697c1.176-1.676,2.82-2.514,4.933-2.514
			c1.197,0,2.246,0.254,3.145,0.759c0.897,0.508,1.645,1.222,2.24,2.15V3.7h1.936v25.208h-1.582l-0.271-2.537
			c-0.597,0.93-1.347,1.64-2.265,2.135c-0.916,0.493-1.992,0.741-3.232,0.741c-2.092,0-3.723-0.777-4.902-2.334
			c-1.182-1.557-1.771-3.644-1.771-6.263V20.312L171.736,20.312z M173.676,20.65c0,2.114,0.421,3.792,1.268,5.041
			c0.846,1.252,2.119,1.876,3.817,1.876c1.254,0,2.293-0.275,3.123-0.833c0.828-0.553,1.476-1.321,1.938-2.304v-8.288
			c-0.442-0.989-1.064-1.8-1.875-2.422c-0.809-0.626-1.857-0.938-3.152-0.938c-1.702,0-2.979,0.695-3.836,2.094
			c-0.856,1.393-1.283,3.208-1.283,5.435V20.65L173.676,20.65z"/>
		<path fill="#58595B" d="M197.228,29.247c-2.263,0-4.101-0.799-5.509-2.398c-1.414-1.599-2.117-3.655-2.117-6.166v-0.888
			c0-2.518,0.709-4.599,2.137-6.238c1.431-1.636,3.196-2.456,5.309-2.456c2.123,0,3.764,0.68,4.922,2.045
			c1.158,1.364,1.738,3.199,1.738,5.501v1.501h-12.169v0.534c0,1.993,0.507,3.647,1.512,4.964c1.007,1.312,2.397,1.968,4.176,1.968
			c1.066,0,2.046-0.173,2.941-0.522c0.895-0.352,1.64-0.823,2.229-1.416l0.824,1.325c-0.612,0.646-1.418,1.181-2.416,1.607
			C199.81,29.035,198.616,29.247,197.228,29.247z M197.047,12.75c-1.486,0-2.708,0.536-3.667,1.599
			c-0.958,1.068-1.518,2.42-1.681,4.056l0.048,0.1h10.018v-0.406c0-1.55-0.407-2.83-1.218-3.837
			C199.734,13.254,198.57,12.75,197.047,12.75z"/>
		<path fill="#58595B" d="M217.76,24.431c0-0.816-0.338-1.53-1.011-2.138c-0.674-0.609-1.888-1.11-3.646-1.495
			c-2.068-0.433-3.604-1.022-4.61-1.77c-1.008-0.75-1.516-1.796-1.516-3.143c0-1.337,0.565-2.467,1.69-3.393
			c1.124-0.929,2.616-1.392,4.469-1.392c1.951,0,3.507,0.493,4.669,1.479c1.166,0.986,1.718,2.202,1.666,3.644l-0.035,0.096h-1.792
			c0-0.958-0.413-1.792-1.235-2.504c-0.826-0.71-1.913-1.067-3.272-1.067c-1.402,0-2.459,0.308-3.168,0.922
			c-0.711,0.614-1.064,1.331-1.064,2.15c0,0.796,0.302,1.455,0.909,1.978c0.608,0.523,1.826,0.985,3.644,1.383
			c2.048,0.452,3.6,1.083,4.648,1.888c1.051,0.808,1.575,1.895,1.575,3.263c0,1.454-0.588,2.641-1.771,3.551
			c-1.177,0.911-2.738,1.363-4.675,1.363c-2.123,0-3.79-0.504-5.004-1.518c-1.212-1.013-1.786-2.221-1.718-3.619l0.031-0.098h1.776
			c0.075,1.259,0.59,2.175,1.545,2.746c0.952,0.57,2.076,0.855,3.369,0.855c1.398,0,2.503-0.311,3.313-0.935
			C217.356,26.054,217.76,25.305,217.76,24.431z"/>
		<g>
			<g>
				<path fill="#231F20" d="M215.731,5.729v1.538h-0.48V3.722h1.214c0.385,0,0.683,0.086,0.888,0.259
					c0.204,0.171,0.304,0.421,0.304,0.751c0,0.181-0.044,0.338-0.141,0.475c-0.094,0.134-0.232,0.241-0.413,0.321
					c0.196,0.063,0.335,0.166,0.421,0.308c0.083,0.142,0.125,0.318,0.125,0.529v0.333c0,0.11,0.012,0.208,0.04,0.296
					c0.023,0.087,0.065,0.16,0.127,0.215v0.059h-0.495c-0.063-0.056-0.103-0.135-0.123-0.242c-0.018-0.108-0.025-0.219-0.025-0.333
					V6.368c0-0.191-0.058-0.346-0.169-0.463c-0.109-0.116-0.261-0.176-0.451-0.176H215.731z M215.731,5.351h0.684
					c0.272,0,0.467-0.051,0.588-0.154c0.117-0.102,0.177-0.259,0.177-0.471c0-0.2-0.058-0.354-0.175-0.465
					c-0.115-0.11-0.296-0.165-0.54-0.165h-0.735L215.731,5.351L215.731,5.351z"/>
			</g>
			<path fill="#231F20" d="M216.427,8.748c-1.794,0-3.254-1.459-3.254-3.254c0-1.794,1.46-3.253,3.254-3.253
				s3.254,1.459,3.254,3.253C219.681,7.289,218.221,8.748,216.427,8.748z M216.427,2.608c-1.593,0-2.887,1.296-2.887,2.886
				c0,1.593,1.298,2.887,2.887,2.887c1.593,0,2.889-1.294,2.889-2.887C219.315,3.904,218.02,2.608,216.427,2.608z"/>
		</g>
	</g>
</g>
</svg>
