<?xml version="1.0" encoding="utf-8"?>
<!-- Generator: Adobe Illustrator 16.0.0, SVG Export Plug-In . SVG Version: 6.00 Build 0)  -->
<!DOCTYPE svg PUBLIC "-//W3C//DTD SVG 1.1//EN" "http://www.w3.org/Graphics/SVG/1.1/DTD/svg11.dtd">
<svg version="1.1" id="Layer_1" xmlns="http://www.w3.org/2000/svg" xmlns:xlink="http://www.w3.org/1999/xlink" x="0px" y="0px"
	 width="28px" height="28px" viewBox="0 0 28 28" enable-background="new 0 0 28 28" xml:space="preserve">
<g>
	<path fill="#354052" d="M25.699,6.21c0.229,0,0.417,0.051,0.564,0.154c0.147,0.103,0.221,0.234,0.221,0.394v4.097
		c0,0.16-0.073,0.292-0.221,0.394c-0.147,0.103-0.335,0.154-0.564,0.154H2.144c-0.229,0-0.417-0.051-0.564-0.154
		c-0.147-0.103-0.221-0.234-0.221-0.394V6.758c0-0.16,0.074-0.292,0.221-0.394C1.727,6.261,1.915,6.21,2.144,6.21H25.699z
		 M25.699,16.597c0.229,0,0.417,0.052,0.564,0.154s0.221,0.233,0.221,0.394v4.098c0,0.159-0.073,0.291-0.221,0.394
		s-0.335,0.154-0.564,0.154H2.144c-0.229,0-0.417-0.052-0.564-0.154c-0.147-0.103-0.221-0.234-0.221-0.394v-4.098
		c0-0.16,0.074-0.291,0.221-0.394c0.147-0.103,0.335-0.154,0.564-0.154H25.699z"/>
</g>
</svg>
